<svg width="211" height="82" viewBox="0 0 211 82" fill="none" xmlns="http://www.w3.org/2000/svg">
<path d="M38 29.4997C37.6 35.4997 30.5 40.3331 27 41.9997C29.3333 43.6663 35.4 46.4995 41 44.4995C48 41.9995 47 45.4995 49.5 54.4995C52 63.4995 45.5 58.9995 42 57.4995C39.2 56.2995 32.1792 59.5593 30.5 58.9995C27.5 57.9995 25.5 55.4995 24 53.4995C21.9875 50.8163 17.5 35.9995 20 31.4995C23.2 30.8532 26.5 28.3969 28 25.9995C29 24.4995 30.5 18.9995 28.5 17.4995C26.5 19.9995 21.5 19.9995 19.5 20.9995C17.9 21.7995 17.6667 24.4995 17.5 25.4995C11.1667 20.4995 3 21.4995 0.5 19.4995C2.5 29.4995 12.5 30.4995 15.5 30.9995C17 34.9995 14.5 40.4995 14 41.9997C13.5528 43.3414 7.5 64.4995 22 74.4995C36.5 84.4995 49.9974 81.3342 58 75.9995C67 70 67 51.8023 67 49.9995C67 45.9995 66 42.4995 66.5 41.9997C70 39.9995 69 36.4995 68 35.4995C65.7639 33.2635 57.5 30.9995 56 29.9995C54.5 28.9995 54.5 23.9995 54.5 22.4995C54.5 20.9995 59.5 22.4995 61 21.9995C62.5 21.4995 61 19.4995 61 17.4995C61 15.4995 64.5 14.4995 62 13.4995C60 12.6995 58.5 6.83288 58 3.99954C57.7796 2.75069 58 2.19978 52 0.999775C44.5 -0.500225 39.5 4.99973 38.5 8.99973C37.5 12.9997 38.5 21.9997 38 29.4997Z" fill="black"/>
<path d="M93.8862 52.8069C92.9771 52.8069 92.1514 52.7327 91.4092 52.5842C90.6855 52.4358 90.1196 52.2781 89.7114 52.1111C89.3218 51.9441 88.793 51.6936 88.125 51.3596C87.4014 51.3596 86.3345 51.6287 84.9243 52.1668C84.6831 52.0183 84.5161 51.8513 84.4233 51.6658C84.5161 51.3689 84.6274 50.3577 84.7573 48.6321C84.9058 46.9065 84.98 45.3665 84.98 44.012C85.2212 43.9007 85.6572 43.845 86.2881 43.845C86.6221 44.9212 86.9653 45.8396 87.3179 46.6004C87.689 47.3611 88.1528 48.1033 88.7095 48.8269C89.2847 49.532 89.9712 50.0701 90.769 50.4412C91.5854 50.7937 92.5132 50.97 93.5522 50.97C95.1665 50.97 96.4282 50.5525 97.3374 49.7175C98.2651 48.8826 98.729 47.9363 98.729 46.8787C98.729 46.0808 98.5991 45.4036 98.3394 44.8469C98.0796 44.2903 97.4951 43.7058 96.5859 43.0935C95.6953 42.4627 94.415 41.8411 92.7451 41.2288C91.7061 40.8577 90.8247 40.5144 90.1011 40.199C89.3774 39.8836 88.626 39.4939 87.8467 39.03C87.0859 38.5662 86.4736 38.093 86.0098 37.6106C85.5459 37.1096 85.1655 36.5159 84.8687 35.8294C84.5718 35.1428 84.4233 34.3914 84.4233 33.575C84.4233 32.9812 84.4883 32.3967 84.6182 31.8216C84.7666 31.2278 85.0356 30.6155 85.4253 29.9846C85.8335 29.3538 86.3345 28.8064 86.9282 28.3425C87.5405 27.8601 88.3477 27.4705 89.3496 27.1736C90.3701 26.8582 91.5205 26.7005 92.8008 26.7005C93.3203 26.7005 93.7749 26.7283 94.1646 26.784C94.5728 26.8396 95.0552 26.9417 95.6118 27.0901C96.187 27.22 96.5024 27.2942 96.5581 27.3128C96.9663 27.22 97.3838 27.0994 97.8105 26.9509C98.2559 26.8025 98.5063 26.719 98.562 26.7005H99.2856C99.731 29.3723 100.306 31.6453 101.011 33.5193C100.789 33.7605 100.427 33.8811 99.9258 33.8811C98.3857 32.0257 97.0684 30.6712 95.9736 29.8176C94.8975 28.9456 93.6729 28.5095 92.2998 28.5095C91.2236 28.5095 90.2773 28.7508 89.4609 29.2332C88.6445 29.7156 88.2363 30.4485 88.2363 31.4319C88.2363 32.6751 88.728 33.6492 89.7114 34.3543C90.7134 35.0593 92.5596 35.9592 95.25 37.054C96.4932 37.555 97.4673 37.9724 98.1724 38.3064C98.896 38.6404 99.6196 39.0393 100.343 39.5032C101.067 39.9671 101.596 40.4495 101.93 40.9505C102.282 41.4329 102.57 42.0174 102.792 42.7039C103.015 43.3904 103.126 44.1883 103.126 45.0974C103.126 47.0642 102.217 48.8455 100.399 50.4412C98.5991 52.0183 96.4282 52.8069 93.8862 52.8069Z" fill="#00BEBB"/>
<path d="M108.108 29.094C111.708 28.7229 114.844 27.9622 117.516 26.8118C117.979 26.9973 118.304 27.2385 118.49 27.5354C118.49 37.1653 118.564 44.0491 118.712 48.1868C118.731 48.6692 118.87 49.0867 119.13 49.4392C119.408 49.7732 119.798 50.033 120.299 50.2185C120.8 50.4041 121.217 50.5432 121.551 50.636C121.885 50.7102 122.321 50.7844 122.859 50.8587C122.971 51.0813 123.026 51.3133 123.026 51.5545C123.026 51.7957 122.971 51.9998 122.859 52.1668C120.41 52.0554 118.035 51.9998 115.734 51.9998C113.471 51.9998 111.114 52.0554 108.665 52.1668C108.591 51.8699 108.554 51.6658 108.554 51.5545C108.554 51.4617 108.591 51.2298 108.665 50.8587C109.277 50.7844 109.778 50.7102 110.168 50.636C110.558 50.5432 111.04 50.4041 111.615 50.2185C112.19 50.033 112.626 49.7732 112.923 49.4392C113.22 49.0867 113.378 48.6692 113.396 48.1868C113.471 46.3499 113.508 44.1233 113.508 41.5071C113.508 40.635 113.499 39.1507 113.48 37.054C113.461 34.9573 113.452 33.1204 113.452 31.5432C112.395 30.8938 110.613 30.5134 108.108 30.4021C108.034 30.1052 107.997 29.8733 107.997 29.7063C107.997 29.595 108.034 29.3909 108.108 29.094ZM112.478 17.4602C112.478 16.5139 112.812 15.7068 113.48 15.0388C114.167 14.3709 114.974 14.0369 115.901 14.0369C116.848 14.0369 117.655 14.3709 118.323 15.0388C118.991 15.7068 119.325 16.5139 119.325 17.4602C119.325 18.388 118.991 19.1951 118.323 19.8816C117.655 20.5496 116.848 20.8836 115.901 20.8836C114.974 20.8836 114.167 20.5496 113.48 19.8816C112.812 19.1951 112.478 18.388 112.478 17.4602Z" fill="#00BEBB"/>
<path d="M126.867 29.094C130.467 28.7229 133.603 27.9622 136.274 26.8118C136.738 26.9973 137.063 27.2385 137.249 27.5354V32.3225C137.935 31.0237 138.956 29.762 140.31 28.5374C141.683 27.3128 143.112 26.7005 144.596 26.7005C145.709 26.7005 146.609 27.0344 147.296 27.7024C148.001 28.3518 148.354 29.2517 148.354 30.4021C148.354 31.4968 148.029 32.3504 147.379 32.9627C146.73 33.575 145.914 33.8811 144.93 33.8811C144.021 33.8811 143.27 33.5935 142.676 33.0183C142.101 32.4246 141.785 31.6453 141.729 30.6804C140.95 31.0144 140.06 31.7566 139.058 32.907C138.074 34.0574 137.471 35.1985 137.249 36.3303C137.249 40.468 137.323 44.4202 137.471 48.1868C137.49 48.6692 137.666 49.0867 138 49.4392C138.334 49.7732 138.826 50.033 139.475 50.2185C140.125 50.4041 140.663 50.5432 141.089 50.636C141.516 50.7102 142.073 50.7844 142.759 50.8587C142.871 51.0813 142.926 51.3133 142.926 51.5545C142.926 51.74 142.871 51.9441 142.759 52.1668C139.976 52.0554 137.221 51.9998 134.493 51.9998C132.229 51.9998 129.873 52.0554 127.424 52.1668C127.35 51.8699 127.312 51.6658 127.312 51.5545C127.312 51.4617 127.35 51.2298 127.424 50.8587C128.036 50.7844 128.537 50.7102 128.927 50.636C129.316 50.5432 129.799 50.4041 130.374 50.2185C130.949 50.033 131.385 49.7732 131.682 49.4392C131.979 49.0867 132.137 48.6692 132.155 48.1868C132.229 46.3499 132.267 44.1233 132.267 41.5071C132.267 40.635 132.257 39.1507 132.239 37.054C132.22 34.9573 132.211 33.1204 132.211 31.5432C131.153 30.8938 129.372 30.5134 126.867 30.4021C126.793 30.1052 126.756 29.8733 126.756 29.7063C126.756 29.595 126.793 29.3909 126.867 29.094Z" fill="#00BEBB"/>
<path d="M173.736 37.2488H158.568C158.494 38.3621 158.457 39.3455 158.457 40.199C158.512 42.9636 159.319 45.1809 160.878 46.8508C162.437 48.5022 164.524 49.3279 167.14 49.3279C167.845 49.3279 168.504 49.2537 169.116 49.1052C169.729 48.9383 170.229 48.7527 170.619 48.5486C171.027 48.3445 171.445 48.0476 171.872 47.658C172.298 47.2683 172.604 46.9622 172.79 46.7395C172.994 46.4983 173.263 46.1458 173.597 45.6819C173.931 45.1995 174.154 44.8933 174.265 44.7634C174.71 44.8562 175.072 45.0603 175.351 45.3758C174.423 47.8621 172.985 49.7268 171.037 50.97C169.088 52.1946 166.973 52.8069 164.691 52.8069C163.559 52.8069 162.455 52.6585 161.379 52.3616C160.321 52.0833 159.292 51.6194 158.29 50.97C157.288 50.3206 156.416 49.5227 155.673 48.5764C154.931 47.6116 154.337 46.4148 153.892 44.9861C153.447 43.5388 153.224 41.9431 153.224 40.199C153.224 36.284 154.421 33.0554 156.814 30.5134C159.208 27.9715 162.149 26.7005 165.637 26.7005C167.177 26.7005 168.513 26.9231 169.645 27.3684C170.795 27.7952 171.686 28.3797 172.317 29.1218C172.966 29.864 173.439 30.6804 173.736 31.5711C174.052 32.4431 174.209 33.3801 174.209 34.3821C174.209 35.3098 174.052 36.2654 173.736 37.2488ZM164.969 28.5095C163.689 28.5095 162.474 29.0755 161.323 30.2073C160.191 31.3391 159.375 33.0554 158.874 35.3562H168.894C169.079 34.6511 169.172 34.0388 169.172 33.5193C169.172 32.072 168.838 30.8753 168.17 29.929C167.502 28.9827 166.435 28.5095 164.969 28.5095Z" fill="#00BEBB"/>
<path d="M194.499 50.8587C194.61 51.0813 194.666 51.3133 194.666 51.5545C194.666 51.74 194.61 51.9441 194.499 52.1668C192.05 52.0554 189.675 51.9998 187.374 51.9998C185.11 51.9998 182.754 52.0554 180.305 52.1668C180.23 51.8699 180.193 51.6658 180.193 51.5545C180.193 51.4617 180.23 51.2298 180.305 50.8587C180.917 50.7844 181.418 50.7102 181.808 50.636C182.197 50.5432 182.68 50.4041 183.255 50.2185C183.83 50.033 184.266 49.7732 184.563 49.4392C184.86 49.0867 185.018 48.6692 185.036 48.1868C185.11 46.3499 185.147 44.1233 185.147 41.5071C185.147 40.635 185.138 39.1507 185.12 37.054C185.101 34.9573 185.092 33.1204 185.092 31.5432C184.034 30.8938 182.253 30.5134 179.748 30.4021C179.674 30.1052 179.637 29.8733 179.637 29.7063C179.637 29.595 179.674 29.3909 179.748 29.094C183.348 28.7229 186.483 27.9622 189.155 26.8118C189.619 26.9973 189.944 27.2385 190.129 27.5354V31.9329C191.929 30.3557 193.655 29.094 195.306 28.1477C196.958 27.1829 198.627 26.7005 200.316 26.7005C202.431 26.7005 203.925 27.2942 204.797 28.4817C205.688 29.6692 206.151 31.5247 206.188 34.0481L206.467 48.1868C206.485 48.6692 206.625 49.0867 206.884 49.4392C207.163 49.7732 207.552 50.033 208.053 50.2185C208.573 50.4041 209 50.5432 209.333 50.636C209.667 50.7102 210.104 50.7844 210.642 50.8587C210.716 51.2298 210.753 51.4802 210.753 51.6101C210.753 51.7586 210.716 51.9441 210.642 52.1668C208.248 52.0554 206.04 51.9998 204.018 51.9998C202.051 51.9998 199.871 52.0554 197.477 52.1668C197.403 51.8699 197.366 51.6472 197.366 51.4988C197.366 51.3689 197.403 51.1555 197.477 50.8587C197.959 50.7844 198.358 50.7102 198.674 50.636C199.008 50.5432 199.379 50.4041 199.787 50.2185C200.214 50.033 200.529 49.7732 200.733 49.4392C200.956 49.0867 201.067 48.6692 201.067 48.1868L201.123 34.9666C201.123 31.6082 200.112 29.929 198.089 29.929C196.197 29.929 193.543 31.1907 190.129 33.7141C190.129 39.1135 190.204 43.9378 190.352 48.1868C190.371 48.6692 190.51 49.0867 190.77 49.4392C191.048 49.7732 191.438 50.033 191.938 50.2185C192.439 50.4041 192.857 50.5432 193.191 50.636C193.525 50.7102 193.961 50.7844 194.499 50.8587Z" fill="#00BEBB"/>
<path d="M126.384 65.5743C126.295 65.2867 126.173 65.0293 126.017 64.802C125.864 64.5712 125.679 64.3741 125.463 64.2107C125.25 64.0474 125.005 63.9248 124.728 63.8432C124.451 63.7579 124.149 63.7153 123.822 63.7153C123.236 63.7153 122.714 63.8627 122.256 64.1574C121.798 64.4522 121.437 64.8854 121.175 65.4572C120.915 66.0253 120.786 66.7178 120.786 67.5346C120.786 68.3584 120.915 69.0562 121.175 69.628C121.434 70.1997 121.794 70.6347 122.256 70.933C122.718 71.2278 123.254 71.3751 123.865 71.3751C124.419 71.3751 124.898 71.2686 125.303 71.0555C125.711 70.8425 126.026 70.5406 126.246 70.15C126.466 69.7558 126.576 69.2942 126.576 68.765L127.023 68.8343H124.062V67.2896H128.488V68.5999C128.488 69.5339 128.289 70.3417 127.892 71.0236C127.494 71.7054 126.947 72.231 126.251 72.6003C125.555 72.966 124.756 73.1489 123.854 73.1489C122.849 73.1489 121.967 72.9234 121.207 72.4724C120.45 72.0179 119.859 71.3734 119.433 70.5388C119.01 69.7008 118.799 68.7065 118.799 67.5559C118.799 66.6752 118.923 65.8886 119.172 65.1962C119.424 64.5037 119.776 63.916 120.227 63.433C120.678 62.9465 121.207 62.5772 121.814 62.3251C122.421 62.0694 123.082 61.9415 123.795 61.9415C124.399 61.9415 124.962 62.0303 125.484 62.2079C126.006 62.3819 126.469 62.6305 126.874 62.9536C127.283 63.2768 127.618 63.6603 127.881 64.1042C128.144 64.5481 128.316 65.0381 128.398 65.5743H126.384Z" fill="black"/>
<path d="M131.074 72.9998V62.0907H135.165C136.003 62.0907 136.706 62.2363 137.275 62.5275C137.846 62.8187 138.278 63.227 138.569 63.7526C138.864 64.2746 139.011 64.8837 139.011 65.5797C139.011 66.2792 138.862 66.8865 138.564 67.4014C138.269 67.9128 137.834 68.3087 137.259 68.5893C136.683 68.8663 135.977 69.0047 135.139 69.0047H132.225V67.3641H134.872C135.362 67.3641 135.764 67.2966 136.076 67.1617C136.389 67.0232 136.619 66.8226 136.768 66.5598C136.921 66.2935 136.998 65.9667 136.998 65.5797C136.998 65.1926 136.921 64.8623 136.768 64.5889C136.616 64.3119 136.383 64.1024 136.071 63.9604C135.758 63.8148 135.355 63.742 134.862 63.742H133.05V72.9998H131.074ZM136.71 68.0566L139.411 72.9998H137.205L134.553 68.0566H136.71Z" fill="black"/>
<path d="M151.253 67.5452C151.253 68.7207 151.033 69.7274 150.592 70.5655C150.156 71.4 149.559 72.0392 148.803 72.4831C148.05 72.927 147.196 73.1489 146.241 73.1489C145.285 73.1489 144.429 72.927 143.673 72.4831C142.92 72.0356 142.324 71.3947 141.883 70.5601C141.446 69.7221 141.228 68.7171 141.228 67.5452C141.228 66.3698 141.446 65.3648 141.883 64.5303C142.324 63.6922 142.92 63.0513 143.673 62.6074C144.429 62.1635 145.285 61.9415 146.241 61.9415C147.196 61.9415 148.05 62.1635 148.803 62.6074C149.559 63.0513 150.156 63.6922 150.592 64.5303C151.033 65.3648 151.253 66.3698 151.253 67.5452ZM149.266 67.5452C149.266 66.7178 149.136 66.02 148.877 65.4518C148.622 64.8801 148.266 64.4486 147.812 64.1574C147.357 63.8627 146.834 63.7153 146.241 63.7153C145.647 63.7153 145.124 63.8627 144.669 64.1574C144.215 64.4486 143.858 64.8801 143.598 65.4518C143.343 66.02 143.215 66.7178 143.215 67.5452C143.215 68.3726 143.343 69.0722 143.598 69.644C143.858 70.2121 144.215 70.6436 144.669 70.9383C145.124 71.2295 145.647 71.3751 146.241 71.3751C146.834 71.3751 147.357 71.2295 147.812 70.9383C148.266 70.6436 148.622 70.2121 148.877 69.644C149.136 69.0722 149.266 68.3726 149.266 67.5452Z" fill="black"/>
<path d="M160.673 62.0907H162.649V69.2178C162.649 69.9991 162.465 70.6862 162.095 71.2793C161.73 71.8723 161.215 72.3357 160.551 72.6695C159.887 72.9998 159.111 73.1649 158.223 73.1649C157.331 73.1649 156.554 72.9998 155.89 72.6695C155.226 72.3357 154.711 71.8723 154.345 71.2793C153.979 70.6862 153.796 69.9991 153.796 69.2178V62.0907H155.773V69.0527C155.773 69.5072 155.872 69.9121 156.071 70.2672C156.273 70.6223 156.557 70.9011 156.923 71.1035C157.289 71.3023 157.722 71.4018 158.223 71.4018C158.724 71.4018 159.157 71.3023 159.523 71.1035C159.892 70.9011 160.176 70.6223 160.375 70.2672C160.574 69.9121 160.673 69.5072 160.673 69.0527V62.0907Z" fill="black"/>
<path d="M165.472 72.9998V62.0907H169.563C170.401 62.0907 171.104 62.2469 171.673 62.5594C172.244 62.8719 172.676 63.3016 172.967 63.8485C173.262 64.3918 173.409 65.0097 173.409 65.7022C173.409 66.4018 173.262 67.0232 172.967 67.5665C172.672 68.1099 172.237 68.5378 171.662 68.8503C171.087 69.1592 170.378 69.3137 169.537 69.3137H166.825V67.689H169.27C169.76 67.689 170.162 67.6038 170.474 67.4334C170.787 67.2629 171.017 67.0285 171.167 66.7302C171.319 66.432 171.396 66.0893 171.396 65.7022C171.396 65.3151 171.319 64.9742 171.167 64.6795C171.017 64.3847 170.785 64.1557 170.469 63.9923C170.156 63.8254 169.753 63.742 169.26 63.742H167.448V72.9998H165.472Z" fill="black"/>
</svg>
