<svg width="69" height="81" viewBox="0 0 69 81" fill="none" xmlns="http://www.w3.org/2000/svg">
<path d="M37.5 28.7527C37.1 34.7527 30 39.586 26.5 41.2527C28.8333 42.9193 34.9 45.7525 40.5 43.7525C47.5 41.2525 46.5 44.7525 49 53.7525C51.5 62.7525 45 58.2525 41.5 56.7525C38.7 55.5525 31.6792 58.8122 30 58.2525C27 57.2525 25 54.7525 23.5 52.7525C21.4875 50.0692 17 35.2525 19.5 30.7525C22.7 30.1062 26 27.6498 27.5 25.2525C28.5 23.7525 30 18.2525 28 16.7525C26 19.2525 21 19.2525 19 20.2525C17.4 21.0525 17.1667 23.7525 17 24.7525C10.6667 19.7525 2.5 20.7525 0 18.7525C2 28.7525 12 29.7525 15 30.2525C16.5 34.2525 14 39.7525 13.5 41.2527C13.0528 42.5943 7 63.7525 21.5 73.7525C36 83.7525 49.4974 80.5871 57.5 75.2525C66.5 69.2529 66.5 51.0552 66.5 49.2525C66.5 45.2525 65.5 41.7525 66 41.2527C69.5 39.2525 68.5 35.7525 67.5 34.7525C65.2639 32.5164 57 30.2525 55.5 29.2525C54 28.2525 54 23.2525 54 21.7525C54 20.2525 59 21.7525 60.5 21.2525C62 20.7525 60.5 18.7525 60.5 16.7525C60.5 14.7525 64 13.7525 61.5 12.7525C59.5 11.9525 58 6.0858 57.5 3.25247C57.2796 2.00362 57.5 1.4527 51.5 0.252705C44 -1.2473 39 4.25266 38 8.25266C37 12.2527 38 21.2527 37.5 28.7527Z" fill="white"/>
</svg>
