<svg width="211" height="81" viewBox="0 0 211 81" fill="none" xmlns="http://www.w3.org/2000/svg">
<path d="M37.5 28.7527C37.1 34.7527 30 39.586 26.5 41.2527C28.8333 42.9193 34.9 45.7525 40.5 43.7525C47.5 41.2525 46.5 44.7525 49 53.7525C51.5 62.7525 45 58.2525 41.5 56.7525C38.7 55.5525 31.6792 58.8122 30 58.2525C27 57.2525 25 54.7525 23.5 52.7525C21.4875 50.0692 17 35.2525 19.5 30.7525C22.7 30.1062 26 27.6498 27.5 25.2525C28.5 23.7525 30 18.2525 28 16.7525C26 19.2525 21 19.2525 19 20.2525C17.4 21.0525 17.1667 23.7525 17 24.7525C10.6667 19.7525 2.5 20.7525 0 18.7525C2 28.7525 12 29.7525 15 30.2525C16.5 34.2525 14 39.7525 13.5 41.2527C13.0528 42.5943 7 63.7525 21.5 73.7525C36 83.7525 49.4974 80.5871 57.5 75.2525C66.5 69.2529 66.5 51.0552 66.5 49.2525C66.5 45.2525 65.5 41.7525 66 41.2527C69.5 39.2525 68.5 35.7525 67.5 34.7525C65.2639 32.5164 57 30.2525 55.5 29.2525C54 28.2525 54 23.2525 54 21.7525C54 20.2525 59 21.7525 60.5 21.2525C62 20.7525 60.5 18.7525 60.5 16.7525C60.5 14.7525 64 13.7525 61.5 12.7525C59.5 11.9525 58 6.0858 57.5 3.25247C57.2796 2.00362 57.5 1.4527 51.5 0.252705C44 -1.2473 39 4.25266 38 8.25266C37 12.2527 38 21.2527 37.5 28.7527Z" fill="white"/>
<path d="M93.3862 52.0598C92.4771 52.0598 91.6514 51.9856 90.9092 51.8372C90.1855 51.6887 89.6196 51.531 89.2114 51.364C88.8218 51.197 88.293 50.9466 87.625 50.6126C86.9014 50.6126 85.8345 50.8816 84.4243 51.4197C84.1831 51.2713 84.0161 51.1043 83.9233 50.9187C84.0161 50.6218 84.1274 49.6106 84.2573 47.885C84.4058 46.1594 84.48 44.6194 84.48 43.2649C84.7212 43.1536 85.1572 43.0979 85.7881 43.0979C86.1221 44.1741 86.4653 45.0925 86.8179 45.8533C87.189 46.614 87.6528 47.3562 88.2095 48.0799C88.7847 48.7849 89.4712 49.323 90.269 49.6941C91.0854 50.0466 92.0132 50.2229 93.0522 50.2229C94.6665 50.2229 95.9282 49.8054 96.8374 48.9705C97.7651 48.1355 98.229 47.1892 98.229 46.1316C98.229 45.3338 98.0991 44.6565 97.8394 44.0999C97.5796 43.5432 96.9951 42.9588 96.0859 42.3465C95.1953 41.7156 93.915 41.094 92.2451 40.4817C91.2061 40.1106 90.3247 39.7674 89.6011 39.4519C88.8774 39.1365 88.126 38.7468 87.3467 38.283C86.5859 37.8191 85.9736 37.346 85.5098 36.8635C85.0459 36.3626 84.6655 35.7688 84.3687 35.0823C84.0718 34.3958 83.9233 33.6443 83.9233 32.8279C83.9233 32.2341 83.9883 31.6497 84.1182 31.0745C84.2666 30.4807 84.5356 29.8684 84.9253 29.2376C85.3335 28.6067 85.8345 28.0593 86.4282 27.5955C87.0405 27.1131 87.8477 26.7234 88.8496 26.4265C89.8701 26.1111 91.0205 25.9534 92.3008 25.9534C92.8203 25.9534 93.2749 25.9812 93.6646 26.0369C94.0728 26.0925 94.5552 26.1946 95.1118 26.343C95.687 26.4729 96.0024 26.5471 96.0581 26.5657C96.4663 26.4729 96.8838 26.3523 97.3105 26.2039C97.7559 26.0554 98.0063 25.9719 98.062 25.9534H98.7856C99.231 28.6253 99.8062 30.8982 100.511 32.7722C100.289 33.0134 99.9268 33.1341 99.4258 33.1341C97.8857 31.2786 96.5684 29.9241 95.4736 29.0706C94.3975 28.1985 93.1729 27.7625 91.7998 27.7625C90.7236 27.7625 89.7773 28.0037 88.9609 28.4861C88.1445 28.9685 87.7363 29.7014 87.7363 30.6848C87.7363 31.928 88.228 32.9021 89.2114 33.6072C90.2134 34.3123 92.0596 35.2122 94.75 36.3069C95.9932 36.8079 96.9673 37.2254 97.6724 37.5593C98.396 37.8933 99.1196 38.2923 99.8433 38.7561C100.567 39.22 101.096 39.7024 101.43 40.2034C101.782 40.6858 102.07 41.2703 102.292 41.9568C102.515 42.6433 102.626 43.4412 102.626 44.3504C102.626 46.3172 101.717 48.0984 99.8989 49.6941C98.0991 51.2713 95.9282 52.0598 93.3862 52.0598Z" fill="white"/>
<path d="M107.608 28.3469C111.208 27.9758 114.344 27.2151 117.016 26.0647C117.479 26.2503 117.804 26.4915 117.99 26.7883C117.99 36.4182 118.064 43.302 118.212 47.4397C118.231 47.9221 118.37 48.3396 118.63 48.6922C118.908 49.0261 119.298 49.2859 119.799 49.4715C120.3 49.657 120.717 49.7962 121.051 49.8889C121.385 49.9632 121.821 50.0374 122.359 50.1116C122.471 50.3342 122.526 50.5662 122.526 50.8074C122.526 51.0486 122.471 51.2527 122.359 51.4197C119.91 51.3084 117.535 51.2527 115.234 51.2527C112.971 51.2527 110.614 51.3084 108.165 51.4197C108.091 51.1228 108.054 50.9187 108.054 50.8074C108.054 50.7146 108.091 50.4827 108.165 50.1116C108.777 50.0374 109.278 49.9632 109.668 49.8889C110.058 49.7962 110.54 49.657 111.115 49.4715C111.69 49.2859 112.126 49.0261 112.423 48.6922C112.72 48.3396 112.878 47.9221 112.896 47.4397C112.971 45.6028 113.008 43.3762 113.008 40.76C113.008 39.888 112.999 38.4036 112.98 36.3069C112.961 34.2102 112.952 32.3733 112.952 30.7962C111.895 30.1467 110.113 29.7664 107.608 29.655C107.534 29.3582 107.497 29.1262 107.497 28.9592C107.497 28.8479 107.534 28.6438 107.608 28.3469ZM111.978 16.7132C111.978 15.7669 112.312 14.9597 112.98 14.2918C113.667 13.6238 114.474 13.2898 115.401 13.2898C116.348 13.2898 117.155 13.6238 117.823 14.2918C118.491 14.9597 118.825 15.7669 118.825 16.7132C118.825 17.6409 118.491 18.448 117.823 19.1345C117.155 19.8025 116.348 20.1365 115.401 20.1365C114.474 20.1365 113.667 19.8025 112.98 19.1345C112.312 18.448 111.978 17.6409 111.978 16.7132Z" fill="white"/>
<path d="M126.367 28.3469C129.967 27.9758 133.103 27.2151 135.774 26.0647C136.238 26.2503 136.563 26.4915 136.749 26.7883V31.5755C137.435 30.2766 138.456 29.0149 139.81 27.7903C141.183 26.5657 142.612 25.9534 144.096 25.9534C145.209 25.9534 146.109 26.2874 146.796 26.9553C147.501 27.6048 147.854 28.5047 147.854 29.655C147.854 30.7498 147.529 31.6033 146.879 32.2156C146.23 32.8279 145.414 33.1341 144.43 33.1341C143.521 33.1341 142.77 32.8465 142.176 32.2713C141.601 31.6775 141.285 30.8982 141.229 29.9334C140.45 30.2674 139.56 31.0095 138.558 32.1599C137.574 33.3103 136.971 34.4514 136.749 35.5833C136.749 39.721 136.823 43.6731 136.971 47.4397C136.99 47.9221 137.166 48.3396 137.5 48.6922C137.834 49.0261 138.326 49.2859 138.975 49.4715C139.625 49.657 140.163 49.7962 140.589 49.8889C141.016 49.9632 141.573 50.0374 142.259 50.1116C142.371 50.3342 142.426 50.5662 142.426 50.8074C142.426 50.9929 142.371 51.197 142.259 51.4197C139.476 51.3084 136.721 51.2527 133.993 51.2527C131.729 51.2527 129.373 51.3084 126.924 51.4197C126.85 51.1228 126.812 50.9187 126.812 50.8074C126.812 50.7146 126.85 50.4827 126.924 50.1116C127.536 50.0374 128.037 49.9632 128.427 49.8889C128.816 49.7962 129.299 49.657 129.874 49.4715C130.449 49.2859 130.885 49.0261 131.182 48.6922C131.479 48.3396 131.637 47.9221 131.655 47.4397C131.729 45.6028 131.767 43.3762 131.767 40.76C131.767 39.888 131.757 38.4036 131.739 36.3069C131.72 34.2102 131.711 32.3733 131.711 30.7962C130.653 30.1467 128.872 29.7664 126.367 29.655C126.293 29.3582 126.256 29.1262 126.256 28.9592C126.256 28.8479 126.293 28.6438 126.367 28.3469Z" fill="white"/>
<path d="M173.236 36.5017H158.068C157.994 37.615 157.957 38.5984 157.957 39.4519C158.012 42.2166 158.819 44.4339 160.378 46.1038C161.937 47.7551 164.024 48.5808 166.64 48.5808C167.345 48.5808 168.004 48.5066 168.616 48.3582C169.229 48.1912 169.729 48.0056 170.119 47.8015C170.527 47.5974 170.945 47.3006 171.372 46.9109C171.798 46.5213 172.104 46.2151 172.29 45.9925C172.494 45.7512 172.763 45.3987 173.097 44.9348C173.431 44.4524 173.654 44.1463 173.765 44.0164C174.21 44.1091 174.572 44.3133 174.851 44.6287C173.923 47.115 172.485 48.9798 170.537 50.2229C168.588 51.4475 166.473 52.0598 164.191 52.0598C163.059 52.0598 161.955 51.9114 160.879 51.6145C159.821 51.3362 158.792 50.8723 157.79 50.2229C156.788 49.5735 155.916 48.7757 155.173 47.8294C154.431 46.8645 153.837 45.6677 153.392 44.239C152.947 42.7918 152.724 41.1961 152.724 39.4519C152.724 35.5369 153.921 32.3084 156.314 29.7664C158.708 27.2244 161.649 25.9534 165.137 25.9534C166.677 25.9534 168.013 26.176 169.145 26.6214C170.295 27.0481 171.186 27.6326 171.817 28.3748C172.466 29.117 172.939 29.9334 173.236 30.824C173.552 31.6961 173.709 32.6331 173.709 33.635C173.709 34.5628 173.552 35.5183 173.236 36.5017ZM164.469 27.7625C163.189 27.7625 161.974 28.3284 160.823 29.4602C159.691 30.5921 158.875 32.3084 158.374 34.6091H168.394C168.579 33.9041 168.672 33.2918 168.672 32.7722C168.672 31.325 168.338 30.1282 167.67 29.1819C167.002 28.2356 165.935 27.7625 164.469 27.7625Z" fill="white"/>
<path d="M193.999 50.1116C194.11 50.3342 194.166 50.5662 194.166 50.8074C194.166 50.9929 194.11 51.197 193.999 51.4197C191.55 51.3084 189.175 51.2527 186.874 51.2527C184.61 51.2527 182.254 51.3084 179.805 51.4197C179.73 51.1228 179.693 50.9187 179.693 50.8074C179.693 50.7146 179.73 50.4827 179.805 50.1116C180.417 50.0374 180.918 49.9632 181.308 49.8889C181.697 49.7962 182.18 49.657 182.755 49.4715C183.33 49.2859 183.766 49.0261 184.063 48.6922C184.36 48.3396 184.518 47.9221 184.536 47.4397C184.61 45.6028 184.647 43.3762 184.647 40.76C184.647 39.888 184.638 38.4036 184.62 36.3069C184.601 34.2102 184.592 32.3733 184.592 30.7962C183.534 30.1467 181.753 29.7664 179.248 29.655C179.174 29.3582 179.137 29.1262 179.137 28.9592C179.137 28.8479 179.174 28.6438 179.248 28.3469C182.848 27.9758 185.983 27.2151 188.655 26.0647C189.119 26.2503 189.444 26.4915 189.629 26.7883V31.1858C191.429 29.6087 193.155 28.3469 194.806 27.4007C196.458 26.4358 198.127 25.9534 199.816 25.9534C201.931 25.9534 203.425 26.5471 204.297 27.7346C205.188 28.9221 205.651 30.7776 205.688 33.301L205.967 47.4397C205.985 47.9221 206.125 48.3396 206.384 48.6922C206.663 49.0261 207.052 49.2859 207.553 49.4715C208.073 49.657 208.5 49.7962 208.833 49.8889C209.167 49.9632 209.604 50.0374 210.142 50.1116C210.216 50.4827 210.253 50.7332 210.253 50.8631C210.253 51.0115 210.216 51.197 210.142 51.4197C207.748 51.3084 205.54 51.2527 203.518 51.2527C201.551 51.2527 199.371 51.3084 196.977 51.4197C196.903 51.1228 196.866 50.9002 196.866 50.7517C196.866 50.6218 196.903 50.4085 196.977 50.1116C197.459 50.0374 197.858 49.9632 198.174 49.8889C198.508 49.7962 198.879 49.657 199.287 49.4715C199.714 49.2859 200.029 49.0261 200.233 48.6922C200.456 48.3396 200.567 47.9221 200.567 47.4397L200.623 34.2195C200.623 30.8611 199.612 29.1819 197.589 29.1819C195.697 29.1819 193.043 30.4436 189.629 32.9671C189.629 38.3665 189.704 43.1907 189.852 47.4397C189.871 47.9221 190.01 48.3396 190.27 48.6922C190.548 49.0261 190.938 49.2859 191.438 49.4715C191.939 49.657 192.357 49.7962 192.691 49.8889C193.025 49.9632 193.461 50.0374 193.999 50.1116Z" fill="white"/>
<path d="M125.884 64.8273C125.795 64.5396 125.673 64.2822 125.517 64.0549C125.364 63.8241 125.179 63.627 124.963 63.4636C124.75 63.3003 124.505 63.1778 124.228 63.0961C123.951 63.0109 123.649 62.9683 123.322 62.9683C122.736 62.9683 122.214 63.1156 121.756 63.4104C121.298 63.7051 120.937 64.1384 120.675 64.7101C120.415 65.2783 120.286 65.9707 120.286 66.7875C120.286 67.6114 120.415 68.3092 120.675 68.8809C120.934 69.4526 121.294 69.8876 121.756 70.1859C122.218 70.4807 122.754 70.6281 123.365 70.6281C123.919 70.6281 124.398 70.5215 124.803 70.3085C125.211 70.0954 125.526 69.7935 125.746 69.4029C125.966 69.0087 126.076 68.5471 126.076 68.018L126.523 68.0872H123.562V66.5425H127.988V67.8528C127.988 68.7868 127.789 69.5947 127.392 70.2765C126.994 70.9583 126.447 71.4839 125.751 71.8532C125.055 72.219 124.256 72.4019 123.354 72.4019C122.349 72.4019 121.467 72.1764 120.707 71.7254C119.95 71.2708 119.359 70.6263 118.933 69.7918C118.51 68.9537 118.299 67.9594 118.299 66.8088C118.299 65.9281 118.423 65.1416 118.672 64.4491C118.924 63.7566 119.276 63.1689 119.727 62.6859C120.178 62.1994 120.707 61.8301 121.314 61.578C121.921 61.3223 122.582 61.1945 123.295 61.1945C123.899 61.1945 124.462 61.2832 124.984 61.4608C125.506 61.6348 125.969 61.8834 126.374 62.2065C126.783 62.5297 127.118 62.9132 127.381 63.3571C127.644 63.801 127.816 64.2911 127.898 64.8273H125.884Z" fill="white"/>
<path d="M130.574 72.2527V61.3436H134.665C135.503 61.3436 136.206 61.4892 136.775 61.7804C137.346 62.0716 137.778 62.48 138.069 63.0055C138.364 63.5276 138.511 64.1366 138.511 64.8326C138.511 65.5322 138.362 66.1394 138.064 66.6543C137.769 67.1657 137.334 67.5617 136.759 67.8422C136.183 68.1192 135.477 68.2577 134.639 68.2577H131.725V66.6171H134.372C134.862 66.6171 135.264 66.5496 135.576 66.4146C135.889 66.2761 136.119 66.0755 136.268 65.8127C136.421 65.5464 136.498 65.2197 136.498 64.8326C136.498 64.4455 136.421 64.1153 136.268 63.8418C136.116 63.5649 135.883 63.3553 135.571 63.2133C135.258 63.0677 134.855 62.9949 134.362 62.9949H132.55V72.2527H130.574ZM136.21 67.3095L138.911 72.2527H136.705L134.053 67.3095H136.21Z" fill="white"/>
<path d="M150.753 66.7982C150.753 67.9736 150.533 68.9803 150.092 69.8184C149.656 70.6529 149.059 71.2921 148.303 71.736C147.55 72.1799 146.696 72.4019 145.741 72.4019C144.785 72.4019 143.929 72.1799 143.173 71.736C142.42 71.2886 141.824 70.6476 141.383 69.8131C140.946 68.975 140.728 67.97 140.728 66.7982C140.728 65.6227 140.946 64.6178 141.383 63.7832C141.824 62.9452 142.42 62.3042 143.173 61.8603C143.929 61.4164 144.785 61.1945 145.741 61.1945C146.696 61.1945 147.55 61.4164 148.303 61.8603C149.059 62.3042 149.656 62.9452 150.092 63.7832C150.533 64.6178 150.753 65.6227 150.753 66.7982ZM148.766 66.7982C148.766 65.9707 148.636 65.2729 148.377 64.7048C148.122 64.133 147.766 63.7016 147.312 63.4104C146.857 63.1156 146.334 62.9683 145.741 62.9683C145.147 62.9683 144.624 63.1156 144.169 63.4104C143.715 63.7016 143.358 64.133 143.098 64.7048C142.843 65.2729 142.715 65.9707 142.715 66.7982C142.715 67.6256 142.843 68.3251 143.098 68.8969C143.358 69.4651 143.715 69.8965 144.169 70.1913C144.624 70.4825 145.147 70.6281 145.741 70.6281C146.334 70.6281 146.857 70.4825 147.312 70.1913C147.766 69.8965 148.122 69.4651 148.377 68.8969C148.636 68.3251 148.766 67.6256 148.766 66.7982Z" fill="white"/>
<path d="M160.173 61.3436H162.149V68.4707C162.149 69.252 161.965 69.9391 161.595 70.5322C161.23 71.1252 160.715 71.5886 160.051 71.9224C159.387 72.2527 158.611 72.4178 157.723 72.4178C156.831 72.4178 156.054 72.2527 155.39 71.9224C154.726 71.5886 154.211 71.1252 153.845 70.5322C153.479 69.9391 153.296 69.252 153.296 68.4707V61.3436H155.273V68.3056C155.273 68.7602 155.372 69.165 155.571 69.5201C155.773 69.8752 156.057 70.154 156.423 70.3564C156.789 70.5553 157.222 70.6547 157.723 70.6547C158.224 70.6547 158.657 70.5553 159.023 70.3564C159.392 70.154 159.676 69.8752 159.875 69.5201C160.074 69.165 160.173 68.7602 160.173 68.3056V61.3436Z" fill="white"/>
<path d="M164.972 72.2527V61.3436H169.063C169.901 61.3436 170.604 61.4999 171.173 61.8124C171.744 62.1249 172.176 62.5546 172.467 63.1014C172.762 63.6447 172.909 64.2626 172.909 64.9551C172.909 65.6547 172.762 66.2761 172.467 66.8195C172.172 67.3628 171.737 67.7907 171.162 68.1032C170.587 68.4122 169.878 68.5666 169.037 68.5666H166.325V66.942H168.77C169.26 66.942 169.662 66.8568 169.974 66.6863C170.287 66.5158 170.517 66.2815 170.667 65.9832C170.819 65.6849 170.896 65.3422 170.896 64.9551C170.896 64.568 170.819 64.2271 170.667 63.9324C170.517 63.6376 170.285 63.4086 169.969 63.2452C169.656 63.0783 169.253 62.9949 168.76 62.9949H166.948V72.2527H164.972Z" fill="white"/>
</svg>
